<svg width="83" height="86" viewBox="0 0 83 86" fill="none" xmlns="http://www.w3.org/2000/svg">
<path d="M5.35797 76.9492C5.14117 76.9082 4.9068 76.8877 4.65484 76.8877C3.85797 76.8877 3.30133 77.3242 2.98492 78.1973V85H1.42926V75.4902H2.94098L2.96734 76.457C3.38336 75.6953 3.97223 75.3145 4.73394 75.3145C4.98004 75.3145 5.18512 75.3555 5.34918 75.4375L5.35797 76.9492ZM9.77922 85.1758C8.59562 85.1758 7.68742 84.8242 7.05461 84.1211C6.4218 83.4121 6.09953 82.375 6.08781 81.0098V79.8584C6.08781 78.4404 6.39543 77.3301 7.01066 76.5273C7.63176 75.7188 8.49601 75.3145 9.60344 75.3145C10.7167 75.3145 11.5487 75.6689 12.0995 76.3779C12.6503 77.0869 12.9316 78.1914 12.9433 79.6914V80.7109H7.63469V80.9307C7.63469 81.9502 7.82512 82.6914 8.20598 83.1543C8.59269 83.6172 9.1464 83.8486 9.86711 83.8486C10.3241 83.8486 10.7255 83.7637 11.0712 83.5938C11.4228 83.418 11.7509 83.1426 12.0556 82.7676L12.8642 83.752C12.1904 84.7012 11.162 85.1758 9.77922 85.1758ZM9.60344 76.6504C8.9589 76.6504 8.48137 76.873 8.17082 77.3184C7.86027 77.7578 7.68449 78.4434 7.64348 79.375H11.3876V79.1641C11.3466 78.2617 11.1825 77.6172 10.8954 77.2305C10.6142 76.8438 10.1835 76.6504 9.60344 76.6504ZM22.6995 80.9395C22.6292 82.3105 22.2425 83.3594 21.5393 84.0859C20.8421 84.8125 19.8548 85.1758 18.5774 85.1758C17.2942 85.1758 16.2747 84.6895 15.5188 83.7168C14.763 82.7383 14.385 81.4141 14.385 79.7441V77.4238C14.385 75.7598 14.7718 74.4443 15.5452 73.4775C16.3245 72.5107 17.385 72.0273 18.7268 72.0273C19.9632 72.0273 20.9182 72.3994 21.5921 73.1436C22.2718 73.8818 22.6409 74.9395 22.6995 76.3164H21.0735C21.0032 75.2734 20.7835 74.5293 20.4143 74.084C20.0452 73.6387 19.4827 73.416 18.7268 73.416C17.8538 73.416 17.1829 73.7588 16.7141 74.4443C16.2454 75.124 16.011 76.123 16.011 77.4414V79.7881C16.011 81.083 16.2278 82.0762 16.6614 82.7676C17.1009 83.459 17.7395 83.8047 18.5774 83.8047C19.4153 83.8047 20.0188 83.5967 20.388 83.1807C20.7571 82.7646 20.9856 82.0176 21.0735 80.9395H22.6995ZM30.4957 81.6602H26.1715L25.1784 85H23.526L27.6481 72.2031H29.028L33.1588 85H31.5065L30.4957 81.6602ZM26.5934 80.2715H30.0827L28.3336 74.4531L26.5934 80.2715ZM36.1475 79.9902V85H34.5391V72.2031H38.6172C39.8066 72.2031 40.7412 72.5605 41.4209 73.2754C42.1006 73.9844 42.4404 74.9307 42.4404 76.1143C42.4404 77.3447 42.1152 78.2939 41.4648 78.9619C40.8203 79.624 39.9092 79.9668 38.7314 79.9902H36.1475ZM36.1475 78.6104H38.6172C39.332 78.6104 39.8799 78.3965 40.2607 77.9688C40.6416 77.541 40.832 76.9287 40.832 76.1318C40.832 75.3643 40.6357 74.749 40.2432 74.2861C39.8506 73.8232 39.3115 73.5918 38.626 73.5918H36.1475V78.6104ZM51.6429 73.5918H48.2767V85H46.6683V73.5918H43.3109V72.2031H51.6429V73.5918ZM60.9509 80.9395C60.8806 82.3105 60.4939 83.3594 59.7907 84.0859C59.0935 84.8125 58.1062 85.1758 56.8288 85.1758C55.5456 85.1758 54.5261 84.6895 53.7702 83.7168C53.0144 82.7383 52.6364 81.4141 52.6364 79.7441V77.4238C52.6364 75.7598 53.0232 74.4443 53.7966 73.4775C54.5759 72.5107 55.6364 72.0273 56.9782 72.0273C58.2146 72.0273 59.1696 72.3994 59.8435 73.1436C60.5232 73.8818 60.8923 74.9395 60.9509 76.3164H59.3249C59.2546 75.2734 59.0349 74.5293 58.6657 74.084C58.2966 73.6387 57.7341 73.416 56.9782 73.416C56.1052 73.416 55.4343 73.7588 54.9655 74.4443C54.4968 75.124 54.2624 76.123 54.2624 77.4414V79.7881C54.2624 81.083 54.4792 82.0762 54.9128 82.7676C55.3523 83.459 55.9909 83.8047 56.8288 83.8047C57.6667 83.8047 58.2702 83.5967 58.6394 83.1807C59.0085 82.7646 59.237 82.0176 59.3249 80.9395H60.9509ZM71.1553 85H69.5382V79.085H64.3878V85H62.7794V72.2031H64.3878V77.7051H69.5382V72.2031H71.1553V85ZM79.7075 81.6602H75.3832L74.3901 85H72.7377L76.8598 72.2031H78.2397L82.3705 85H80.7182L79.7075 81.6602ZM75.8051 80.2715H79.2944L77.5453 74.4531L75.8051 80.2715Z" fill="#A6A6A6"/>
<path fill-rule="evenodd" clip-rule="evenodd" d="M65.1411 10.9375C63.2226 8.60605 60.9514 6.56326 58.3929 4.89052C53.0874 1.42169 46.8195 -0.277461 40.4884 0.0368561L41.2582 15.5414C44.3132 15.3897 47.3377 16.2096 49.8979 17.8835C51.5613 18.9711 52.9731 20.3828 54.056 22.0226L46.2775 29.801H71.7775V4.30104L65.2775 10.801L65.1411 10.9375Z" fill="#1C3AA9"/>
<path fill-rule="evenodd" clip-rule="evenodd" d="M16 0H41.5V25.5L33.9514 17.9513C33.0661 18.5409 32.2424 19.2304 31.4977 20.0116C28.9871 22.6453 27.5604 26.1279 27.5016 29.766L11.98 29.5151C12.1019 21.9756 15.0585 14.7585 20.2613 9.3005C21.086 8.43534 21.9576 7.62443 22.8704 6.8704L22.5 6.5L16 0Z" fill="#4285F4"/>
<path fill-rule="evenodd" clip-rule="evenodd" d="M12 54.5L12 29L37.5 29L29.9514 36.5486C30.1263 36.8112 30.3101 37.0686 30.5026 37.3202C32.2424 39.5942 34.6174 41.3012 37.3273 42.2254C40.0372 43.1496 42.9603 43.2494 45.7269 42.5123C48.4935 41.7752 50.9795 40.2343 52.8703 38.0843L64.5271 48.3363C60.6085 52.7918 55.4568 55.9852 49.7234 57.5127C43.9899 59.0402 37.9323 58.8333 32.3165 56.9181C27.0544 55.1235 22.4018 51.9047 18.8705 47.6295L18.5 48L12 54.5Z" fill="#ABABAB"/>
</svg>
