<svg width="300" height="300" viewBox="0 0 300 300" fill="none" xmlns="http://www.w3.org/2000/svg">
<g clip-path="url(#clip0)">
<path d="M149.999 277.995C220.707 277.995 278.028 220.675 278.028 149.967C278.028 79.2585 220.707 21.9382 149.999 21.9382C79.291 21.9382 21.9707 79.2585 21.9707 149.967C21.9707 220.675 79.291 277.995 149.999 277.995Z" fill="#FD8469"/>
<path d="M200.012 123.16C200.412 127.762 198.812 132.162 196.011 135.363C193.41 138.364 189.41 142.365 184.208 146.165C181.608 147.966 178.807 149.766 175.807 151.367L170.605 135.763L182.408 126.761L187.809 122.56L182.208 105.956C184.208 85.1514 189.41 66.9478 189.41 66.9478C189.41 66.9478 197.611 87.1526 200.012 123.16Z" fill="#E6E9EE"/>
<path d="M99.9886 123.16C99.5886 127.762 101.189 132.162 103.989 135.363C106.59 138.364 110.59 142.365 115.792 146.165C118.392 147.966 121.193 149.766 124.193 151.367L129.395 135.763L117.592 126.761L112.191 122.56L117.792 105.956C115.792 85.1514 110.59 66.9478 110.59 66.9478C110.59 66.9478 102.389 87.1526 99.9886 123.16Z" fill="#E6E9EE"/>
<path d="M157.802 38.5426L150 38.1426L142.198 38.5426C142.198 38.5426 142.798 45.5444 139.397 51.7456V60.3474L150 63.748L160.202 60.5474V50.945C157.202 44.9438 157.802 38.5426 157.802 38.5426Z" fill="#FFD05B"/>
<path d="M160.202 50.9447V60.7471L150 63.9477L139.397 60.5471V51.9453C140.197 50.5447 140.797 48.9447 141.198 47.5441C142.599 42.7429 142.198 38.7423 142.198 38.7423L150 38.3423L157.802 38.7423C157.802 38.7423 157.402 42.7429 158.802 47.3441C159.202 48.3441 159.602 49.5447 160.202 50.9447Z" fill="#FFD05B"/>
<path d="M118.993 156.368L118.593 179.573L123.994 290.798H138.597L149.999 199.578L161.402 290.798H176.005L181.407 179.573L181.007 156.368H118.993Z" fill="#54C0EB"/>
<path d="M154 156.368H145.599V163.57H154V156.368Z" fill="#324A5E"/>
<path d="M158.802 46.9444L158.202 47.7444C156.802 49.545 154.802 50.545 152.601 50.945L151 51.145C150.2 51.345 149.4 51.345 148.6 51.145L147.199 50.945C144.999 50.545 142.998 49.5444 141.598 47.7444L140.998 47.3444C142.399 42.5432 141.998 38.5426 141.998 38.5426L149.8 38.1426L157.602 38.5426C157.802 38.5426 157.402 42.3432 158.802 46.9444Z" fill="#F9B54C"/>
<path d="M178.206 290.798H161.202V297.8C161.202 299 162.202 300 163.403 300H186.208V299C186.408 294.399 182.806 290.798 178.206 290.798Z" fill="#324A5E"/>
<path d="M121.794 290.798H138.797V297.8C138.797 299 137.797 300 136.597 300H113.592V299C113.592 294.399 117.192 290.798 121.794 290.798Z" fill="#2B3B4E"/>
<path d="M167.204 53.3454C163.003 51.3448 159.802 49.9448 159.802 49.9448V50.1448C158.402 55.146 154.201 57.7466 150 57.7466C145.799 57.7466 141.598 55.146 140.197 50.1448V49.9448C140.197 49.9448 134.796 52.1454 128.795 55.346V156.968H167.203L167.204 53.3454Z" fill="#84DBFF"/>
<path d="M149.599 12.9363H134.796L137.197 37.7417C137.397 39.5423 137.997 41.1423 139.197 42.5429L141.198 44.9435C142.598 46.7441 144.598 47.7441 146.799 48.1441L148.2 48.3442C149 48.5442 149.8 48.5442 150.6 48.3442L152 48.1441C154.201 47.7441 156.201 46.7436 157.601 44.9435L159.602 42.5429C160.802 41.1423 161.403 39.5423 161.603 37.7417L164.403 12.9363H149.599Z" fill="#FFD05B"/>
<path d="M166.003 27.5398C165.203 29.3404 163.603 30.5404 162.403 30.1404C161.203 29.7404 160.602 27.7398 161.403 25.7392C162.203 23.9386 163.803 22.7386 165.003 23.1386C166.203 23.7386 166.803 25.7392 166.003 27.5398Z" fill="#FFD05B"/>
<path d="M133.196 27.5398C133.996 29.3404 135.596 30.5404 136.796 30.1404C137.996 29.7404 138.597 27.7398 137.796 25.7392C136.996 23.9386 135.396 22.7386 134.196 23.1386C132.796 23.7386 132.396 25.7392 133.196 27.5398Z" fill="#FFD05B"/>
<path d="M137.397 7.33511C137.397 7.33511 149.4 -10.6691 166.204 9.73571L164.403 9.13571C164.403 9.13571 167.604 12.5363 164.803 23.9387C164.803 23.9387 163.003 24.1387 162.403 28.1399C162.403 28.1399 162.003 18.7381 159.602 16.9375C159.602 16.9375 143.798 17.9375 139.998 14.3369C139.998 14.3369 135.997 20.9381 137.597 30.1405C137.597 30.1405 134.597 24.3393 132.996 21.1387C131.796 18.9381 131.195 16.5375 131.195 13.9369C131.396 10.9357 132.596 7.33511 137.397 7.33511Z" fill="#324A5E"/>
<path d="M182.606 164.97C183.006 144.366 179.206 128.362 182.006 108.958C185.207 85.1528 189.608 67.1491 189.608 67.1491C182.806 59.1473 160.402 50.1455 160.402 50.1455C165.003 63.7485 154.6 75.551 152.8 77.5516L153.6 230.586H181.606L183.006 179.574L182.606 164.97Z" fill="white"/>
<path d="M160.402 49.9448L167.003 56.9466L163.002 58.9472L166.003 66.349L153 77.3515C153 77.3509 162.802 62.5473 160.402 49.9448Z" fill="#E6E9EE"/>
<path d="M117.392 164.97C116.992 144.366 120.793 128.362 117.992 108.958C114.792 85.1528 110.391 67.1491 110.391 67.1491C117.192 59.1473 139.597 50.1455 139.597 50.1455C134.996 63.7485 145.398 75.551 147.199 77.5516L146.399 230.586H118.393L116.992 179.574L117.392 164.97Z" fill="white"/>
<path d="M139.598 49.9448L132.997 57.1466L136.998 58.9472L133.997 66.3491L147 77.5515C147.2 77.3509 137.198 62.5473 139.598 49.9448Z" fill="#E6E9EE"/>
<path d="M143 29C143.833 28 145.8 26.6 147 29" stroke="black"/>
<path d="M152 29.3252C152.833 28.3252 154.8 26.9252 156 29.3252" stroke="black"/>
<path d="M145 39.5C146.667 41 150.7 43.1 153.5 39.5" stroke="black"/>
<path d="M141 26C141.5 24.9999 146.5 24.0001 148 27" stroke="black" stroke-width="0.4"/>
<path d="M158.5 26.5C158 25.4998 153 24 151.5 26.9999" stroke="black" stroke-width="0.4"/>
</g>
<defs>
<clipPath id="clip0">
<rect width="300" height="300" fill="white"/>
</clipPath>
</defs>
</svg>
