<svg width="64" height="64" viewBox="0 0 64 64" fill="none" xmlns="http://www.w3.org/2000/svg">
<rect width="64" height="64" rx="32" fill="white"/>
<rect x="11" y="13" width="41" height="39" rx="10" fill="black"/>
<rect x="15" y="17" width="33" height="31" rx="10" fill="white"/>
<path d="M41 32.5C41 37.7467 36.7467 42 31.5 42C26.2533 42 22 37.7467 22 32.5C22 27.2533 26.2533 23 31.5 23C36.7467 23 41 27.2533 41 32.5ZM25.4297 32.5C25.4297 35.8525 28.1475 38.5703 31.5 38.5703C34.8525 38.5703 37.5703 35.8525 37.5703 32.5C37.5703 29.1475 34.8525 26.4297 31.5 26.4297C28.1475 26.4297 25.4297 29.1475 25.4297 32.5Z" fill="black"/>
<circle cx="42" cy="22" r="2" fill="black"/>
</svg>
