<svg width="64" height="64" viewBox="0 0 64 64" fill="none" xmlns="http://www.w3.org/2000/svg">
<rect x="1" y="1" width="62" height="62" rx="31" stroke="black" stroke-width="2"/>
<rect x="13" y="14" width="37" height="35.1951" rx="9" fill="black"/>
<path d="M40.0732 31.5976C40.0732 36.3324 36.2348 40.1707 31.5 40.1707C26.7652 40.1707 22.9268 36.3324 22.9268 31.5976C22.9268 26.8627 26.7652 23.0244 31.5 23.0244C36.2348 23.0244 40.0732 26.8627 40.0732 31.5976ZM24.7908 31.5976C24.7908 35.303 27.7946 38.3068 31.5 38.3068C35.2054 38.3068 38.2093 35.303 38.2093 31.5976C38.2093 27.8921 35.2054 24.8883 31.5 24.8883C27.7946 24.8883 24.7908 27.8921 24.7908 31.5976Z" fill="white"/>
<circle cx="40.9756" cy="22.122" r="1.80488" fill="white"/>
</svg>
