<?xml version="1.0" ?><!DOCTYPE svg  PUBLIC '-//W3C//DTD SVG 1.0//EN'  'http://www.w3.org/TR/2001/REC-SVG-20010904/DTD/svg10.dtd'><svg enable-background="new 0 0 32 32" height="32px" id="Layer_1" version="1.0" viewBox="0 0 32 32" width="32px" xml:space="preserve" xmlns="http://www.w3.org/2000/svg" xmlns:xlink="http://www.w3.org/1999/xlink"><path d="M2.605,10.701c1.529-3.173,5.093-5.816,8.572-7.331L7.866,2.224C7.269,2.018,6.953,1.366,7.159,0.77  c0.206-0.597,0.858-0.914,1.454-0.707l6.48,2.243c0.575,0.198,0.897,0.903,0.707,1.453l-2.242,6.481  c-0.164,0.473-0.606,0.77-1.08,0.77c-0.124,0-0.25-0.021-0.374-0.063c-0.596-0.206-0.912-0.857-0.706-1.454l1.509-4.362  c-3.32,1.256-6.88,3.735-8.242,6.562c-1.075,2.23-1.461,4.71-1.119,7.172c0.46,3.326,2.189,6.273,4.868,8.3  c2.677,2.024,5.985,2.89,9.311,2.426c3.326-0.461,6.274-2.188,8.301-4.868c2.024-2.677,2.887-5.979,2.429-9.304  c-0.003-0.021-0.005-0.04-0.007-0.06c-0.057-0.602,0.348-1.249,0.945-1.344c0.621-0.104,1.217,0.418,1.328,1.03  c0.012,0.073,0.02,0.147,0.02,0.222c0.492,3.874-0.531,7.715-2.891,10.836c-2.396,3.164-5.879,5.207-9.813,5.752  C17.346,31.952,16.654,32,15.967,32c-3.213,0-6.325-1.039-8.932-3.012c-3.165-2.395-5.208-5.877-5.752-9.809  C0.877,16.271,1.335,13.339,2.605,10.701z"/></svg>