<svg width="350" height="129" viewBox="0 0 350 129" fill="none" xmlns="http://www.w3.org/2000/svg">
<rect x="290" width="20" height="129" fill="#FF0000"/>
<rect width="20" height="129" transform="matrix(-1 0 0 1 59 0)" fill="#FF0000"/>
<rect x="317" y="12" width="14" height="107" fill="#009934"/>
<rect width="14" height="107" transform="matrix(-1 0 0 1 32 12)" fill="#009934"/>
<rect x="337" y="52" width="13" height="25" fill="#0C79B6"/>
<rect width="12" height="25" transform="matrix(-1 0 0 1 12 52)" fill="#0C79B6"/>
<path d="M107.239 30.1711V39H100.966V12.978H111.35C113.339 12.978 115.097 13.3474 116.622 14.0861C118.159 14.8129 119.345 15.8555 120.179 17.2138C121.025 18.5601 121.448 20.0912 121.448 21.8069C121.448 24.3448 120.536 26.3762 118.713 27.9013C116.902 29.4145 114.412 30.1711 111.242 30.1711H107.239ZM107.239 25.3277H111.35C112.565 25.3277 113.488 25.0239 114.12 24.4163C114.763 23.8086 115.085 22.9507 115.085 21.8427C115.085 20.6273 114.757 19.6563 114.102 18.9295C113.447 18.2027 112.553 17.8333 111.421 17.8214H107.239V25.3277ZM152.334 26.5252C152.334 29.063 151.864 31.309 150.922 33.263C149.981 35.217 148.641 36.7243 146.901 37.7847C145.174 38.8332 143.202 39.3574 140.985 39.3574C138.769 39.3574 136.803 38.8511 135.088 37.8383C133.372 36.8136 132.031 35.3541 131.066 33.4596C130.113 31.5652 129.613 29.3907 129.565 26.9362V25.4707C129.565 22.9209 130.03 20.675 130.959 18.7329C131.9 16.7789 133.241 15.2716 134.98 14.2112C136.732 13.1508 138.722 12.6206 140.95 12.6206C143.154 12.6206 145.12 13.1448 146.848 14.1933C148.575 15.2418 149.916 16.7372 150.869 18.6793C151.834 20.6095 152.322 22.8256 152.334 25.3277V26.5252ZM145.954 25.435C145.954 22.8495 145.519 20.8895 144.649 19.555C143.791 18.2086 142.558 17.5355 140.95 17.5355C137.804 17.5355 136.142 19.8946 135.963 24.6129L135.945 26.5252C135.945 29.075 136.368 31.0349 137.214 32.4051C138.06 33.7754 139.317 34.4605 140.985 34.4605C142.57 34.4605 143.791 33.7873 144.649 32.4409C145.507 31.0945 145.942 29.1584 145.954 26.6324V25.435ZM181.219 29.2954L184.204 12.978H190.424L184.901 39H178.396L174.911 24.166L171.497 39H165.009L159.469 12.978H165.706L168.691 29.2954L172.265 12.978H177.591L181.219 29.2954ZM214.501 27.9728H204.636V34.1745H216.288V39H198.362V12.978H216.324V17.8214H204.636V23.3082H214.501V27.9728ZM234.003 29.8137H230.608V39H224.334V12.978H234.575C237.661 12.978 240.074 13.6631 241.813 15.0333C243.553 16.4035 244.423 18.3397 244.423 20.8418C244.423 22.6529 244.053 24.1541 243.315 25.3456C242.588 26.5371 241.444 27.5022 239.883 28.2409L245.316 38.7319V39H238.596L234.003 29.8137ZM230.608 24.9703H234.575C235.767 24.9703 236.66 24.6605 237.256 24.0409C237.864 23.4095 238.167 22.5337 238.167 21.4137C238.167 20.2937 237.864 19.418 237.256 18.7865C236.648 18.1431 235.755 17.8214 234.575 17.8214H230.608V24.9703Z" fill="#DF940A"/>
<path d="M150.928 66.5H144.949C143.785 66.5 142.752 67.2448 142.384 68.3491C141.748 70.2561 143.341 72.1655 145.332 71.8812L145.959 71.7915C147.119 71.6259 148.216 72.3636 148.5 73.5L152.5 89L159.381 106.694C159.46 106.897 159.517 107.109 159.552 107.324L162.588 126.411C162.825 127.902 164.112 129 165.622 129H170.5H175.567C177.084 129 178.373 127.893 178.603 126.394L181.5 107.5L183.438 96.3537C183.479 96.1187 183.547 95.8893 183.641 95.67L188 85.5L191.5 74.5L191.57 74.2211C191.836 73.1561 192.65 72.3142 193.706 72.0126L195.089 71.6173C195.362 71.5395 195.621 71.4218 195.858 71.2681C198.254 69.7178 197.156 66 194.303 66H190.11C188.839 66 187.699 66.7828 187.243 67.969L185.5 72.5L181.67 81.1173C181.557 81.3712 181.41 81.6087 181.234 81.8232L178.455 85.1953C178.288 85.3976 178.148 85.6204 178.038 85.8583L175.325 91.7188C174.822 92.8049 173.734 93.5 172.537 93.5H166.823C165.699 93.5 164.665 92.886 164.127 91.8992L162.129 88.2371C162.043 88.0793 161.944 87.9294 161.831 87.7891L158.368 83.4604C158.125 83.1563 157.942 82.8086 157.828 82.4359L154.5 71.5L153.927 68.9089C153.616 67.5018 152.369 66.5 150.928 66.5Z" fill="#DF940A"/>
<circle cx="169.5" cy="83" r="5.5" fill="#DF940A"/>
<path d="M138.739 112.803C137.63 114.036 136.008 115.028 133.872 115.781C131.736 116.534 129.395 116.911 126.848 116.911C122.933 116.911 119.804 115.713 117.463 113.317C115.122 110.921 113.869 107.587 113.705 103.315L113.684 100.727C113.684 97.7838 114.204 95.2167 115.245 93.0261C116.285 90.8218 117.771 89.1309 119.701 87.9534C121.646 86.7623 123.891 86.1667 126.438 86.1667C130.162 86.1667 133.051 87.0224 135.104 88.7338C137.172 90.4316 138.376 92.9713 138.719 96.3531H131.777C131.531 94.6827 130.997 93.4916 130.175 92.7796C129.354 92.0677 128.19 91.7117 126.684 91.7117C124.877 91.7117 123.48 92.4784 122.494 94.0119C121.509 95.5453 121.009 97.7359 120.995 100.584V102.391C120.995 105.376 121.502 107.621 122.515 109.127C123.542 110.62 125.151 111.366 127.341 111.366C129.217 111.366 130.613 110.948 131.531 110.113V105.472H126.52V100.522H138.739V112.803ZM209.054 86.598L215.729 107.402L222.383 86.598H231.871V116.5H224.642V109.517L225.34 95.2236L218.111 116.5H213.347L206.097 95.203L206.795 109.517V116.5H199.587V86.598H209.054Z" fill="#DF940A"/>
<path d="M66 57.5C151.3 47.3895 198.534 47.8551 282 57.5001V75C199.453 65.6817 152.217 65.3868 66 75V57.5Z" fill="#7B7B7B"/>
</svg>
