<svg width="1658" height="1658" viewBox="0 0 1658 1658" fill="none" xmlns="http://www.w3.org/2000/svg">
<rect width="1658" height="1658" rx="333" fill="black"/>
<path d="M615.57 1226.38V1185.99H694.212V1304.41C683.604 1306.45 671.364 1308.08 657.492 1309.31C643.824 1310.73 631.788 1311.45 621.384 1311.45C594.252 1311.45 574.158 1308.69 561.102 1303.19C548.046 1297.47 539.07 1287.27 534.174 1272.59C529.278 1257.69 526.83 1234.74 526.83 1203.74C526.83 1174.77 529.278 1152.84 534.174 1137.95C539.274 1122.85 548.454 1112.14 561.714 1105.82C574.974 1099.29 594.762 1096.02 621.078 1096.02C636.174 1096.02 651.168 1096.94 666.06 1098.78C680.952 1100.61 690.03 1102.04 693.294 1103.06V1143.45C670.446 1140.6 652.902 1139.17 640.662 1139.17C620.466 1139.17 606.594 1140.29 599.046 1142.54C591.702 1144.58 586.806 1149.78 584.358 1158.14C581.91 1166.51 580.686 1181.7 580.686 1203.74C580.686 1223.73 581.604 1238.11 583.44 1246.88C585.276 1255.45 589.05 1261.37 594.762 1264.63C600.678 1267.89 610.266 1269.53 623.526 1269.53C630.87 1269.53 637.908 1269.22 644.64 1268.61V1226.38H615.57ZM830.977 1309V1237.4L760.903 1098.47H815.983L857.293 1185.38H859.435L900.439 1098.47H954.295L884.221 1237.4V1309H830.977ZM1202.39 1309V1174.97H1200.25L1155.27 1309H1119.16L1074.18 1174.97H1072.03V1309H1022.46V1098.47H1095.6L1137.21 1219.95H1139.35L1180.66 1098.47H1253.49V1309H1202.39Z" fill="#DF940A"/>
<path d="M182.338 771.767H282.4C301.168 771.767 315.346 774.521 324.934 780.029C334.522 785.537 340.846 793.289 343.906 803.285C347.17 813.281 348.802 826.643 348.802 843.371C348.802 859.079 347.272 871.931 344.212 881.927C341.356 891.923 335.032 899.879 325.24 905.795C315.652 911.711 301.372 914.669 282.4 914.669H235.582V982.295H182.338V771.767ZM260.368 872.135C271.18 872.135 278.932 871.523 283.624 870.299C288.316 868.871 291.376 866.321 292.804 862.649C294.232 858.773 294.946 852.347 294.946 843.371C294.946 834.395 294.232 828.071 292.804 824.399C291.376 820.523 288.316 817.973 283.624 816.749C279.136 815.321 271.384 814.607 260.368 814.607H235.582V872.135H260.368ZM513.244 984.743C483.664 984.743 462.55 981.683 449.902 975.563C437.458 969.239 429.604 959.243 426.34 945.575C423.28 931.907 421.75 909.059 421.75 877.031C421.75 845.003 423.28 822.155 426.34 808.487C429.604 794.819 437.458 784.925 449.902 778.805C462.55 772.481 483.664 769.319 513.244 769.319C542.824 769.319 563.836 772.481 576.28 778.805C588.928 784.925 596.782 794.819 599.842 808.487C602.902 822.155 604.432 845.003 604.432 877.031C604.432 909.059 602.902 931.907 599.842 945.575C596.782 959.243 588.928 969.239 576.28 975.563C563.836 981.683 542.824 984.743 513.244 984.743ZM513.244 941.597C526.504 941.597 535.378 940.577 539.866 938.537C544.354 936.293 547.21 931.295 548.434 923.543C549.658 915.791 550.27 900.287 550.27 877.031C550.27 853.775 549.658 838.271 548.434 830.519C547.21 822.767 544.354 817.871 539.866 815.831C535.378 813.587 526.504 812.465 513.244 812.465C499.984 812.465 491.008 813.587 486.316 815.831C481.624 817.871 478.666 822.869 477.442 830.825C476.218 838.781 475.606 854.183 475.606 877.031C475.606 899.879 476.218 915.281 477.442 923.237C478.666 931.193 481.624 936.293 486.316 938.537C491.008 940.577 499.984 941.597 513.244 941.597Z" fill="#DF940A"/>
<path d="M1081.67 982.295V771.767H1230.99V814.913H1134.91V854.387H1216.31V897.533H1134.91V939.149H1230.99V982.295H1081.67ZM1433.64 982.295L1406.1 908.549H1369.07V982.295H1315.83V771.767H1416.81C1436.19 771.767 1450.77 774.521 1460.57 780.029C1470.56 785.333 1477.09 792.779 1480.15 802.367C1483.41 811.751 1485.05 824.399 1485.05 840.311C1485.05 854.999 1483.11 867.749 1479.23 878.561C1475.56 889.373 1468.11 897.227 1456.89 902.123L1489.33 982.295H1433.64ZM1396.61 866.321C1407.63 866.321 1415.38 865.709 1419.87 864.485C1424.56 863.261 1427.62 861.017 1429.05 857.753C1430.48 854.285 1431.19 848.573 1431.19 840.617C1431.19 832.457 1430.58 826.745 1429.35 823.481C1428.13 820.013 1425.17 817.667 1420.48 816.443C1415.99 815.219 1408.24 814.607 1397.22 814.607H1369.07V866.321H1396.61Z" fill="#DF940A"/>
<path d="M766.311 810.7L673.539 657.094L708.519 962.278L766.311 810.7Z" fill="#DF940A"/>
<path d="M824.591 624.23L706.695 963.799L863.138 718.942L948.813 963.799L1224.09 289.049L974.872 718.942V493.857C927.719 439.613 891.732 465.974 859.794 499.94C859.287 494.364 860.301 494.364 859.794 489.801L857.766 488.787L849.655 478.141C799.77 434.543 723.707 434.543 697.873 493.857C706.488 451.273 717.955 440.758 727.48 430.488V414.772L706.695 434.543L753.13 366.612C753.13 366.612 796.728 390.946 807.881 391.96C819.034 392.974 867.701 368.133 867.701 368.133C867.701 368.133 866.758 350.865 863.138 348.869C858.377 346.243 817 363.064 811.936 365.598C800.382 360.624 795.173 357.258 787.603 346.334C800.274 350.897 821.569 359.008 859.083 343.8L877.544 309.834L848.646 260.66C838.805 249 824.611 253.563 817.513 253.563C810.416 253.563 801.994 250.98 789.124 249C789.124 249 764.137 260.699 735.894 273.334C716.63 281.952 714.602 281.952 697.873 306.792C681.143 331.633 586.934 424.613 570.327 482.704C560.627 516.638 559.68 558.746 563.74 583.587C566.89 602.851 600.748 607.413 631.166 607.413C698.08 699.171 791.359 653.039 824.591 624.23Z" fill="#DF940A"/>
<path d="M828.666 579.531L821.061 567.364C812.95 584.094 776.247 613.294 712.574 608.427C765.703 623.027 820.048 595.753 828.666 579.531Z" fill="white"/>
</svg>
