<svg width="65" height="65" viewBox="0 0 65 65" fill="none" xmlns="http://www.w3.org/2000/svg">
<path d="M54.8272 22.9049L32.9225 2.5L7.11222 11.9737C5.13117 12.7834 1.88225 15.9089 4.73496 21.9332L6.2632 24.2359M54.8272 22.9049C54.8272 22.9049 60.2443 25.3826 58.2067 30.4352M54.8272 22.9049L24.7719 35.5922C22.3679 37.5355 21.1903 40.6934 22.3946 43.1226M58.2067 30.4352L29.34 41.1235M58.2067 30.4352C60.584 31.2449 64.1664 37.5283 60.7704 43.5526M60.7704 43.5526L32.9225 54.9696M60.7704 43.5526C62.2986 43.9575 63.657 46.7105 62.1288 49.3826L32.0734 62.5C29.7473 62.5 28.1715 61.9087 27.1491 60.9635M27.1491 48.6538L57.7139 37.4798M27.1491 48.6538C23.6956 47.9975 23.1298 44.6055 22.3946 43.1226M27.1491 48.6538C25.6981 51.6785 24.3504 58.376 27.1491 60.9635M22.3946 43.1226L6.2632 24.2359M6.2632 24.2359C4.45195 24.6019 1.37283 26.8401 3.54633 32.8644L27.1491 60.9635" stroke="#DEDCDC" stroke-width="4" stroke-linecap="round"/>
</svg>
