<svg width="64" height="64" viewBox="0 0 64 64" fill="none" xmlns="http://www.w3.org/2000/svg">
<rect x="1" y="1" width="62" height="62" rx="31" stroke="black" stroke-width="2"/>
<path d="M51.4534 21.5989C50.6788 22.7607 48.3068 25.2295 47.3386 25.4716C48.0647 37.0898 36.9307 53.7909 12 41.9307C16.8409 41.9307 20.7136 41.4466 24.1023 37.5738C20.6168 37.9611 18.2125 35.5568 17.325 33.7011C19.0193 34.1852 19.2614 33.9432 20.7136 33.7011C17.8091 33.7011 15.6307 27.65 15.3886 25.9557C16.3568 26.6818 17.0829 26.9239 18.5352 26.6818C15.8243 25.1327 16.1955 19.017 17.325 17C23.1341 25.7136 27.2488 26.6818 32.8159 26.6818C31.3636 14.3375 42.9818 15.7898 45.6443 20.6307C46.2252 20.8243 49.4363 19.3398 50.9693 18.9364C50.9693 19.9045 48.4682 22.325 47.3386 22.8091C47.7259 23.1964 50.4852 21.7602 51.4534 21.5989Z" fill="black"/>
</svg>
