<svg width="64" height="64" viewBox="0 0 64 64" fill="none" xmlns="http://www.w3.org/2000/svg">
<rect width="64" height="64" rx="32" fill="white"/>
<path d="M53.5348 21.0746C52.6801 22.3566 50.0627 25.0809 48.9943 25.348C49.7956 38.168 37.5097 56.5968 10 43.5097C15.3417 43.5097 19.615 42.9755 23.3542 38.7022C19.5082 39.1295 16.8552 36.4765 15.8759 34.4288C17.7454 34.963 18.0125 34.6959 19.615 34.4288C16.41 34.4288 14.0063 27.7517 13.7392 25.8821C14.8075 26.6834 15.6088 26.9505 17.2113 26.6834C14.2199 24.974 14.6295 18.2257 15.8759 16C22.2859 25.615 26.8263 26.6834 32.9693 26.6834C31.3668 13.0621 44.1868 14.6646 47.1247 20.0063C47.7657 20.2199 51.3091 18.5818 53.0006 18.1367C53.0006 19.205 50.2407 21.8759 48.9943 22.41C49.4217 22.8374 52.4664 21.2527 53.5348 21.0746Z" fill="black"/>
</svg>
